<svg xmlns="http://www.w3.org/2000/svg" xmlns:xlink="http://www.w3.org/1999/xlink" width="406" zoomAndPan="magnify" viewBox="0 0 304.5 89.999999" height="120" preserveAspectRatio="xMidYMid meet" version="1.0"><defs><g/><clipPath id="f7c3a317a0"><path d="M 10.742188 20.441406 L 66 20.441406 L 66 69 L 10.742188 69 Z M 10.742188 20.441406 " clip-rule="nonzero"/></clipPath></defs><path fill="#000000" d="M 38.8125 49.980469 C 38.789062 49.980469 38.773438 49.980469 38.753906 49.980469 C 38.570312 49.960938 38.40625 49.851562 38.335938 49.679688 L 35.394531 43.082031 C 35.320312 42.914062 35.335938 42.722656 35.445312 42.566406 C 35.554688 42.414062 35.730469 42.339844 35.914062 42.355469 L 43.09375 43.109375 C 43.277344 43.132812 43.4375 43.242188 43.511719 43.410156 C 43.585938 43.578125 43.570312 43.769531 43.460938 43.925781 L 39.214844 49.769531 C 39.125 49.910156 38.972656 49.980469 38.8125 49.980469 Z M 35.871094 42.421875 C 35.722656 42.421875 35.589844 42.488281 35.503906 42.605469 C 35.410156 42.734375 35.394531 42.90625 35.460938 43.050781 L 38.398438 49.652344 C 38.464844 49.796875 38.605469 49.902344 38.765625 49.914062 C 38.929688 49.929688 39.082031 49.863281 39.179688 49.734375 L 43.425781 43.886719 C 43.519531 43.753906 43.535156 43.585938 43.46875 43.441406 C 43.402344 43.292969 43.261719 43.191406 43.101562 43.175781 L 35.921875 42.421875 C 35.898438 42.421875 35.886719 42.421875 35.871094 42.421875 Z M 35.871094 42.421875 " fill-opacity="1" fill-rule="nonzero"/><path fill="#000000" d="M 38.578125 50.589844 C 38.546875 50.589844 38.519531 50.589844 38.480469 50.582031 C 38.277344 50.554688 38.105469 50.414062 38.035156 50.222656 L 35.160156 42.734375 C 35.085938 42.546875 35.113281 42.332031 35.246094 42.171875 C 35.378906 42.011719 35.578125 41.9375 35.78125 41.964844 L 43.710938 43.21875 C 43.914062 43.25 44.082031 43.390625 44.15625 43.578125 C 44.230469 43.769531 44.203125 43.984375 44.070312 44.144531 L 39.015625 50.378906 C 38.914062 50.511719 38.753906 50.589844 38.578125 50.589844 Z M 35.695312 42.015625 C 35.546875 42.015625 35.402344 42.082031 35.304688 42.199219 C 35.1875 42.339844 35.160156 42.523438 35.226562 42.699219 L 38.105469 50.195312 C 38.171875 50.363281 38.320312 50.480469 38.496094 50.511719 C 38.671875 50.539062 38.847656 50.472656 38.964844 50.328125 L 44.019531 44.09375 C 44.136719 43.953125 44.164062 43.761719 44.097656 43.59375 C 44.03125 43.425781 43.886719 43.308594 43.710938 43.277344 L 35.78125 42.023438 C 35.753906 42.023438 35.722656 42.015625 35.695312 42.015625 Z M 35.695312 42.015625 " fill-opacity="1" fill-rule="nonzero"/><path fill="#000000" d="M 38.289062 51.242188 C 38.246094 51.242188 38.203125 51.234375 38.160156 51.230469 C 37.929688 51.175781 37.753906 51.023438 37.683594 50.804688 L 34.925781 42.324219 C 34.851562 42.105469 34.902344 41.871094 35.054688 41.703125 C 35.210938 41.535156 35.4375 41.460938 35.664062 41.503906 L 44.382812 43.359375 C 44.613281 43.410156 44.789062 43.566406 44.859375 43.785156 C 44.933594 44.003906 44.882812 44.238281 44.730469 44.410156 L 38.765625 51.03125 C 38.636719 51.167969 38.464844 51.242188 38.289062 51.242188 Z M 34.996094 42.296875 L 37.753906 50.773438 C 37.8125 50.964844 37.976562 51.105469 38.171875 51.148438 C 38.371094 51.191406 38.570312 51.125 38.699219 50.972656 L 44.664062 44.351562 C 44.796875 44.203125 44.839844 43.996094 44.78125 43.808594 C 44.714844 43.617188 44.5625 43.476562 44.363281 43.433594 L 35.644531 41.578125 C 35.445312 41.535156 35.246094 41.597656 35.113281 41.746094 C 34.984375 41.898438 34.9375 42.105469 34.996094 42.296875 Z M 34.996094 42.296875 " fill-opacity="1" fill-rule="nonzero"/><path fill="#000000" d="M 37.929688 51.953125 C 37.871094 51.953125 37.804688 51.949219 37.746094 51.933594 C 37.5 51.867188 37.316406 51.675781 37.25 51.433594 L 34.683594 41.863281 C 34.617188 41.613281 34.683594 41.359375 34.867188 41.179688 C 35.050781 41 35.304688 40.933594 35.546875 41 L 45.117188 43.566406 C 45.367188 43.632812 45.550781 43.820312 45.617188 44.0625 C 45.683594 44.3125 45.617188 44.570312 45.433594 44.746094 L 38.429688 51.75 C 38.296875 51.882812 38.121094 51.953125 37.929688 51.953125 Z M 34.769531 41.835938 L 37.335938 51.40625 C 37.394531 51.625 37.558594 51.785156 37.777344 51.84375 C 37.996094 51.902344 38.21875 51.84375 38.378906 51.683594 L 45.382812 44.679688 C 45.542969 44.519531 45.601562 44.296875 45.542969 44.078125 C 45.484375 43.859375 45.324219 43.695312 45.101562 43.636719 L 35.53125 41.070312 C 35.320312 41.011719 35.09375 41.070312 34.929688 41.234375 C 34.769531 41.394531 34.710938 41.621094 34.769531 41.835938 Z M 34.769531 41.835938 " fill-opacity="1" fill-rule="nonzero"/><path fill="#000000" d="M 37.503906 52.726562 C 37.425781 52.726562 37.34375 52.710938 37.257812 52.6875 C 36.984375 52.601562 36.785156 52.378906 36.726562 52.101562 L 34.441406 41.328125 C 34.382812 41.050781 34.46875 40.769531 34.683594 40.582031 C 34.894531 40.390625 35.179688 40.332031 35.453125 40.417969 L 45.917969 43.820312 C 46.1875 43.910156 46.386719 44.128906 46.445312 44.410156 C 46.503906 44.6875 46.417969 44.964844 46.203125 45.15625 L 38.027344 52.519531 C 37.878906 52.652344 37.695312 52.71875 37.503906 52.726562 Z M 35.210938 40.476562 C 35.042969 40.476562 34.878906 40.535156 34.753906 40.652344 C 34.570312 40.820312 34.492188 41.0625 34.542969 41.304688 L 36.832031 52.070312 C 36.882812 52.3125 37.058594 52.503906 37.292969 52.585938 C 37.527344 52.660156 37.785156 52.605469 37.96875 52.4375 L 46.144531 45.074219 C 46.328125 44.90625 46.410156 44.664062 46.355469 44.421875 C 46.304688 44.179688 46.128906 43.992188 45.894531 43.910156 L 35.429688 40.507812 C 35.347656 40.492188 35.285156 40.476562 35.210938 40.476562 Z M 35.210938 40.476562 " fill-opacity="1" fill-rule="nonzero"/><path fill="#000000" d="M 36.984375 53.546875 C 36.882812 53.546875 36.773438 53.523438 36.667969 53.488281 C 36.375 53.378906 36.171875 53.121094 36.121094 52.804688 L 34.207031 40.726562 C 34.152344 40.410156 34.273438 40.109375 34.519531 39.914062 C 34.769531 39.714844 35.085938 39.664062 35.386719 39.773438 L 46.804688 44.160156 C 47.097656 44.269531 47.304688 44.527344 47.355469 44.839844 C 47.40625 45.15625 47.289062 45.457031 47.039062 45.65625 L 37.527344 53.355469 C 37.375 53.480469 37.183594 53.546875 36.984375 53.546875 Z M 35.0625 39.824219 C 34.894531 39.824219 34.726562 39.882812 34.585938 39.992188 C 34.375 40.167969 34.273438 40.433594 34.316406 40.703125 L 36.230469 52.785156 C 36.273438 53.054688 36.449219 53.28125 36.714844 53.378906 C 36.96875 53.472656 37.257812 53.429688 37.46875 53.261719 L 46.964844 45.566406 C 47.179688 45.390625 47.28125 45.128906 47.238281 44.855469 C 47.195312 44.585938 47.015625 44.355469 46.753906 44.261719 L 35.335938 39.875 C 35.253906 39.847656 35.160156 39.824219 35.0625 39.824219 Z M 35.0625 39.824219 " fill-opacity="1" fill-rule="nonzero"/><path fill="#000000" d="M 36.363281 54.433594 C 36.230469 54.433594 36.089844 54.402344 35.964844 54.34375 C 35.644531 54.207031 35.429688 53.90625 35.394531 53.5625 L 33.972656 40.042969 C 33.933594 39.691406 34.082031 39.363281 34.367188 39.15625 C 34.652344 38.953125 35.011719 38.914062 35.335938 39.054688 L 47.75 44.585938 C 48.074219 44.722656 48.285156 45.015625 48.324219 45.367188 C 48.359375 45.722656 48.210938 46.050781 47.925781 46.257812 L 36.933594 54.25 C 36.765625 54.375 36.566406 54.433594 36.363281 54.433594 Z M 34.9375 39.097656 C 34.761719 39.097656 34.585938 39.15625 34.441406 39.261719 C 34.191406 39.445312 34.058594 39.730469 34.09375 40.039062 L 35.519531 53.554688 C 35.546875 53.863281 35.738281 54.117188 36.015625 54.242188 C 36.296875 54.367188 36.609375 54.339844 36.859375 54.15625 L 47.851562 46.167969 C 48.101562 45.984375 48.234375 45.699219 48.199219 45.390625 C 48.167969 45.082031 47.976562 44.828125 47.699219 44.703125 L 35.285156 39.171875 C 35.171875 39.121094 35.054688 39.097656 34.9375 39.097656 Z M 34.9375 39.097656 " fill-opacity="1" fill-rule="nonzero"/><path fill="#000000" d="M 35.628906 55.386719 C 35.460938 55.386719 35.289062 55.351562 35.136719 55.269531 C 34.792969 55.09375 34.570312 54.757812 34.550781 54.367188 L 33.757812 39.289062 C 33.734375 38.902344 33.917969 38.542969 34.25 38.328125 C 34.578125 38.117188 34.984375 38.09375 35.328125 38.269531 L 48.777344 45.128906 C 49.121094 45.304688 49.34375 45.640625 49.363281 46.027344 C 49.386719 46.417969 49.203125 46.777344 48.871094 46.988281 L 36.214844 55.210938 C 36.039062 55.328125 35.832031 55.386719 35.628906 55.386719 Z M 34.835938 38.277344 C 34.660156 38.277344 34.476562 38.328125 34.324219 38.429688 C 34.035156 38.613281 33.875 38.929688 33.898438 39.273438 L 34.691406 54.351562 C 34.703125 54.691406 34.902344 54.992188 35.203125 55.144531 C 35.503906 55.296875 35.863281 55.285156 36.148438 55.09375 L 48.8125 46.871094 C 49.101562 46.6875 49.261719 46.375 49.238281 46.027344 C 49.226562 45.691406 49.027344 45.390625 48.726562 45.238281 L 35.277344 38.378906 C 35.128906 38.3125 34.984375 38.277344 34.835938 38.277344 Z M 34.835938 38.277344 " fill-opacity="1" fill-rule="nonzero"/><path fill="#000000" d="M 34.769531 56.398438 C 34.566406 56.398438 34.359375 56.347656 34.167969 56.238281 C 33.792969 56.015625 33.566406 55.636719 33.566406 55.195312 L 33.566406 38.417969 C 33.566406 37.984375 33.792969 37.59375 34.167969 37.375 C 34.542969 37.15625 34.988281 37.15625 35.363281 37.375 L 49.890625 45.765625 C 50.265625 45.984375 50.492188 46.367188 50.492188 46.804688 C 50.492188 47.238281 50.265625 47.628906 49.890625 47.847656 L 35.363281 56.230469 C 35.179688 56.339844 34.976562 56.398438 34.769531 56.398438 Z M 34.769531 37.367188 C 34.585938 37.367188 34.410156 37.410156 34.242188 37.507812 C 33.914062 37.699219 33.714844 38.035156 33.714844 38.417969 L 33.714844 55.195312 C 33.714844 55.578125 33.914062 55.914062 34.242188 56.105469 C 34.570312 56.296875 34.960938 56.296875 35.289062 56.105469 L 49.820312 47.714844 C 50.148438 47.523438 50.347656 47.1875 50.347656 46.804688 C 50.347656 46.425781 50.148438 46.085938 49.820312 45.898438 L 35.289062 37.507812 C 35.128906 37.410156 34.945312 37.367188 34.769531 37.367188 Z M 34.769531 37.367188 " fill-opacity="1" fill-rule="nonzero"/><path fill="#000000" d="M 33.757812 57.46875 C 33.507812 57.46875 33.257812 57.394531 33.03125 57.25 C 32.628906 56.984375 32.402344 56.546875 32.429688 56.0625 L 33.40625 37.449219 C 33.429688 36.964844 33.699219 36.546875 34.132812 36.332031 C 34.558594 36.113281 35.054688 36.144531 35.460938 36.40625 L 51.09375 46.558594 C 51.5 46.820312 51.726562 47.261719 51.695312 47.746094 C 51.675781 48.230469 51.402344 48.648438 50.96875 48.859375 L 34.367188 57.316406 C 34.167969 57.417969 33.964844 57.46875 33.757812 57.46875 Z M 34.742188 36.347656 C 34.558594 36.347656 34.382812 36.394531 34.210938 36.480469 C 33.839844 36.671875 33.597656 37.039062 33.574219 37.457031 L 32.597656 56.070312 C 32.578125 56.488281 32.777344 56.875 33.128906 57.109375 C 33.480469 57.335938 33.917969 57.359375 34.292969 57.167969 L 50.902344 48.707031 C 51.277344 48.515625 51.519531 48.148438 51.542969 47.730469 C 51.5625 47.3125 51.367188 46.921875 51.015625 46.6875 L 35.371094 36.539062 C 35.171875 36.414062 34.960938 36.347656 34.742188 36.347656 Z M 34.742188 36.347656 " fill-opacity="1" fill-rule="nonzero"/><path fill="#000000" d="M 32.585938 58.597656 C 32.277344 58.597656 31.976562 58.503906 31.71875 58.3125 C 31.285156 57.996094 31.058594 57.492188 31.117188 56.964844 L 33.28125 36.363281 C 33.339844 35.828125 33.664062 35.378906 34.152344 35.167969 C 34.644531 34.949219 35.195312 35.007812 35.628906 35.320312 L 52.386719 47.496094 C 52.816406 47.8125 53.046875 48.316406 52.988281 48.84375 C 52.929688 49.378906 52.605469 49.828125 52.113281 50.039062 L 33.195312 58.46875 C 32.996094 58.554688 32.789062 58.597656 32.585938 58.597656 Z M 34.753906 35.21875 C 34.578125 35.21875 34.394531 35.257812 34.226562 35.335938 C 33.800781 35.527344 33.515625 35.914062 33.464844 36.386719 L 31.300781 56.984375 C 31.25 57.453125 31.449219 57.894531 31.828125 58.167969 C 32.210938 58.445312 32.6875 58.488281 33.121094 58.296875 L 52.039062 49.871094 C 52.464844 49.679688 52.753906 49.292969 52.804688 48.824219 C 52.855469 48.355469 52.65625 47.914062 52.277344 47.640625 L 35.519531 35.46875 C 35.285156 35.300781 35.019531 35.21875 34.753906 35.21875 Z M 34.753906 35.21875 " fill-opacity="1" fill-rule="nonzero"/><path fill="#000000" d="M 31.222656 59.78125 C 30.855469 59.78125 30.496094 59.65625 30.195312 59.414062 C 29.730469 59.039062 29.511719 58.46875 29.605469 57.878906 L 33.207031 35.152344 L 33.3125 35.167969 L 33.207031 35.152344 C 33.304688 34.566406 33.683594 34.089844 34.242188 33.878906 C 34.800781 33.664062 35.402344 33.761719 35.863281 34.132812 L 53.75 48.617188 C 54.210938 48.992188 54.433594 49.5625 54.335938 50.152344 C 54.242188 50.738281 53.859375 51.214844 53.300781 51.425781 L 31.816406 59.675781 C 31.625 59.742188 31.425781 59.78125 31.222656 59.78125 Z M 34.835938 33.964844 C 34.660156 33.964844 34.484375 33.996094 34.316406 34.058594 C 33.832031 34.242188 33.496094 34.660156 33.414062 35.183594 L 29.8125 57.910156 C 29.730469 58.421875 29.921875 58.929688 30.324219 59.25 C 30.730469 59.582031 31.265625 59.664062 31.75 59.480469 L 53.238281 51.230469 C 53.71875 51.046875 54.058594 50.628906 54.144531 50.105469 C 54.226562 49.59375 54.035156 49.085938 53.632812 48.765625 L 35.738281 34.289062 C 35.472656 34.074219 35.160156 33.964844 34.835938 33.964844 Z M 34.835938 33.964844 " fill-opacity="1" fill-rule="nonzero"/><path fill="#000000" d="M 29.660156 61.019531 C 29.21875 61.019531 28.785156 60.859375 28.441406 60.550781 C 27.949219 60.109375 27.738281 59.457031 27.875 58.8125 L 33.195312 33.804688 C 33.332031 33.160156 33.789062 32.652344 34.417969 32.445312 C 35.050781 32.242188 35.714844 32.386719 36.207031 32.828125 L 55.210938 49.9375 C 55.699219 50.378906 55.914062 51.03125 55.773438 51.675781 C 55.632812 52.320312 55.179688 52.828125 54.550781 53.03125 L 30.230469 60.929688 C 30.039062 60.988281 29.84375 61.019531 29.660156 61.019531 Z M 33.304688 33.824219 L 33.414062 33.847656 L 28.097656 58.855469 C 27.980469 59.421875 28.164062 59.992188 28.589844 60.375 C 29.019531 60.761719 29.601562 60.886719 30.148438 60.703125 L 54.46875 52.804688 C 55.019531 52.628906 55.421875 52.183594 55.539062 51.617188 C 55.65625 51.050781 55.472656 50.480469 55.046875 50.097656 L 36.046875 32.988281 C 35.613281 32.601562 35.035156 32.476562 34.484375 32.660156 C 33.933594 32.835938 33.53125 33.28125 33.414062 33.847656 Z M 33.304688 33.824219 " fill-opacity="1" fill-rule="nonzero"/><path fill="#000000" d="M 27.855469 62.300781 C 27.328125 62.300781 26.820312 62.097656 26.433594 61.707031 C 25.910156 61.1875 25.714844 60.453125 25.902344 59.75 L 33.257812 32.308594 C 33.449219 31.597656 33.984375 31.0625 34.695312 30.871094 C 35.410156 30.679688 36.140625 30.878906 36.65625 31.398438 L 56.742188 51.484375 C 57.261719 52.007812 57.460938 52.738281 57.269531 53.441406 C 57.078125 54.15625 56.542969 54.691406 55.832031 54.878906 L 28.390625 62.230469 C 28.214844 62.28125 28.03125 62.300781 27.855469 62.300781 Z M 33.5 32.367188 L 26.144531 59.808594 C 25.976562 60.433594 26.152344 61.070312 26.609375 61.523438 C 27.0625 61.980469 27.699219 62.148438 28.324219 61.988281 L 55.765625 54.632812 C 56.390625 54.460938 56.859375 53.992188 57.019531 53.378906 C 57.1875 52.753906 57.011719 52.117188 56.558594 51.660156 L 36.472656 31.566406 C 36.015625 31.113281 35.378906 30.945312 34.753906 31.105469 C 34.140625 31.273438 33.664062 31.742188 33.5 32.367188 Z M 33.5 32.367188 " fill-opacity="1" fill-rule="nonzero"/><path fill="#000000" d="M 25.792969 63.613281 C 25.164062 63.613281 24.5625 63.351562 24.128906 62.867188 C 23.585938 62.257812 23.410156 61.4375 23.660156 60.660156 L 33.414062 30.636719 C 33.664062 29.859375 34.292969 29.292969 35.09375 29.125 C 35.890625 28.957031 36.691406 29.214844 37.242188 29.820312 L 58.363281 53.28125 C 58.90625 53.890625 59.082031 54.710938 58.832031 55.488281 C 58.582031 56.265625 57.953125 56.832031 57.152344 57 L 26.277344 63.5625 C 26.109375 63.601562 25.949219 63.613281 25.792969 63.613281 Z M 33.546875 30.6875 L 33.675781 30.730469 L 23.921875 60.746094 C 23.703125 61.429688 23.859375 62.148438 24.335938 62.675781 C 24.8125 63.203125 25.515625 63.433594 26.210938 63.285156 L 57.085938 56.722656 C 57.78125 56.574219 58.332031 56.074219 58.554688 55.402344 C 58.773438 54.71875 58.621094 54 58.140625 53.472656 L 37.027344 30.019531 C 36.550781 29.492188 35.847656 29.265625 35.152344 29.410156 C 34.453125 29.558594 33.90625 30.054688 33.683594 30.730469 Z M 33.546875 30.6875 " fill-opacity="1" fill-rule="nonzero"/><path fill="#000000" d="M 23.445312 64.964844 C 22.699219 64.964844 21.996094 64.632812 21.511719 64.03125 C 20.9375 63.328125 20.792969 62.40625 21.121094 61.554688 L 33.691406 28.808594 C 34.015625 27.964844 34.75 27.371094 35.644531 27.234375 C 36.539062 27.09375 37.410156 27.421875 37.980469 28.128906 L 60.054688 55.386719 C 60.628906 56.089844 60.773438 57.015625 60.445312 57.867188 C 60.121094 58.707031 59.390625 59.304688 58.496094 59.441406 L 23.84375 64.929688 C 23.710938 64.949219 23.578125 64.964844 23.445312 64.964844 Z M 36.03125 27.511719 C 35.914062 27.511719 35.796875 27.519531 35.679688 27.539062 C 34.894531 27.664062 34.257812 28.179688 33.976562 28.917969 L 21.410156 61.664062 C 21.121094 62.40625 21.253906 63.210938 21.753906 63.828125 C 22.25 64.445312 23.023438 64.738281 23.800781 64.613281 L 58.441406 59.132812 C 59.226562 59.007812 59.867188 58.496094 60.144531 57.753906 C 60.429688 57.015625 60.296875 56.207031 59.800781 55.59375 L 37.726562 28.332031 C 37.308594 27.804688 36.691406 27.511719 36.03125 27.511719 Z M 36.03125 27.511719 " fill-opacity="1" fill-rule="nonzero"/><path fill="#000000" d="M 20.777344 66.3125 C 19.890625 66.3125 19.070312 65.894531 18.535156 65.164062 C 17.941406 64.347656 17.828125 63.3125 18.238281 62.390625 L 34.09375 26.792969 C 34.507812 25.875 35.347656 25.261719 36.347656 25.15625 C 37.351562 25.054688 38.296875 25.472656 38.890625 26.285156 L 61.792969 57.820312 C 62.390625 58.636719 62.5 59.667969 62.089844 60.59375 C 61.675781 61.511719 60.835938 62.125 59.835938 62.230469 L 21.078125 66.300781 C 20.976562 66.304688 20.871094 66.3125 20.777344 66.3125 Z M 36.648438 25.488281 C 36.558594 25.488281 36.472656 25.496094 36.382812 25.503906 C 35.511719 25.597656 34.769531 26.132812 34.410156 26.933594 L 18.554688 62.535156 C 18.195312 63.34375 18.292969 64.246094 18.8125 64.964844 C 19.332031 65.675781 20.160156 66.050781 21.042969 65.953125 L 59.800781 61.882812 C 60.671875 61.789062 61.414062 61.253906 61.773438 60.453125 C 62.132812 59.648438 62.035156 58.746094 61.515625 58.027344 L 38.605469 26.492188 C 38.144531 25.855469 37.425781 25.488281 36.648438 25.488281 Z M 36.648438 25.488281 " fill-opacity="1" fill-rule="nonzero"/><path fill="#000000" d="M 17.757812 67.664062 C 16.707031 67.664062 15.746094 67.144531 15.167969 66.253906 C 14.558594 65.316406 14.5 64.164062 15.007812 63.167969 L 34.660156 24.578125 C 35.167969 23.582031 36.140625 22.949219 37.257812 22.890625 C 38.371094 22.832031 39.40625 23.359375 40.015625 24.300781 L 63.597656 60.617188 C 64.207031 61.554688 64.265625 62.707031 63.761719 63.703125 C 63.253906 64.699219 62.277344 65.332031 61.164062 65.390625 L 17.917969 67.65625 C 17.867188 67.664062 17.808594 67.664062 17.757812 67.664062 Z M 35.003906 24.753906 L 15.34375 63.335938 C 14.894531 64.210938 14.953125 65.222656 15.484375 66.042969 C 16.019531 66.863281 16.921875 67.324219 17.894531 67.273438 L 61.140625 65.007812 C 62.117188 64.957031 62.96875 64.40625 63.414062 63.535156 C 63.863281 62.660156 63.804688 61.648438 63.277344 60.828125 L 39.691406 24.511719 C 39.15625 23.691406 38.253906 23.230469 37.277344 23.28125 C 36.304688 23.332031 35.453125 23.882812 35.003906 24.753906 Z M 35.003906 24.753906 " fill-opacity="1" fill-rule="nonzero"/><g clip-path="url(#f7c3a317a0)"><path fill="#000000" d="M 62.453125 68.984375 L 14.347656 68.984375 C 13.097656 68.984375 11.992188 68.339844 11.367188 67.265625 C 10.746094 66.1875 10.746094 64.90625 11.367188 63.828125 L 35.421875 22.15625 L 35.605469 22.269531 L 35.421875 22.15625 C 36.046875 21.078125 37.160156 20.441406 38.398438 20.441406 C 39.648438 20.441406 40.753906 21.085938 41.378906 22.15625 L 65.433594 63.828125 C 66.054688 64.90625 66.054688 66.1875 65.433594 67.265625 C 64.816406 68.339844 63.703125 68.984375 62.453125 68.984375 Z M 38.398438 20.867188 C 37.316406 20.867188 36.339844 21.433594 35.796875 22.371094 L 11.742188 64.039062 C 11.199219 64.980469 11.199219 66.109375 11.742188 67.046875 C 12.285156 67.984375 13.261719 68.550781 14.347656 68.550781 L 62.453125 68.550781 C 63.539062 68.550781 64.515625 67.984375 65.058594 67.046875 C 65.601562 66.109375 65.601562 64.980469 65.058594 64.039062 L 41.003906 22.371094 C 40.460938 21.425781 39.484375 20.867188 38.398438 20.867188 Z M 38.398438 20.867188 " fill-opacity="1" fill-rule="nonzero"/></g><g fill="#000000" fill-opacity="1"><g transform="translate(67.659894, 58.576852)"><g><path d="M 1.921875 -12.328125 C 1.921875 -14.859375 2.425781 -17.070312 3.4375 -18.96875 C 4.457031 -20.875 5.867188 -22.347656 7.671875 -23.390625 C 9.484375 -24.429688 11.554688 -24.953125 13.890625 -24.953125 C 16.910156 -24.953125 19.394531 -24.21875 21.34375 -22.75 C 23.300781 -21.289062 24.597656 -19.265625 25.234375 -16.671875 L 20.84375 -16.671875 C 20.414062 -18.160156 19.597656 -19.335938 18.390625 -20.203125 C 17.179688 -21.078125 15.679688 -21.515625 13.890625 -21.515625 C 11.554688 -21.515625 9.671875 -20.710938 8.234375 -19.109375 C 6.804688 -17.515625 6.09375 -15.253906 6.09375 -12.328125 C 6.09375 -9.367188 6.804688 -7.082031 8.234375 -5.46875 C 9.671875 -3.851562 11.554688 -3.046875 13.890625 -3.046875 C 15.679688 -3.046875 17.175781 -3.460938 18.375 -4.296875 C 19.570312 -5.140625 20.394531 -6.335938 20.84375 -7.890625 L 25.234375 -7.890625 C 24.578125 -5.378906 23.257812 -3.367188 21.28125 -1.859375 C 19.3125 -0.347656 16.847656 0.40625 13.890625 0.40625 C 11.554688 0.40625 9.484375 -0.113281 7.671875 -1.15625 C 5.867188 -2.207031 4.457031 -3.6875 3.4375 -5.59375 C 2.425781 -7.507812 1.921875 -9.753906 1.921875 -12.328125 Z M 1.921875 -12.328125 "/></g></g></g><g fill="#000000" fill-opacity="1"><g transform="translate(94.844914, 58.576852)"><g><path d="M 5.5625 -28.546875 C 4.78125 -28.546875 4.117188 -28.8125 3.578125 -29.34375 C 3.046875 -29.882812 2.78125 -30.546875 2.78125 -31.328125 C 2.78125 -32.097656 3.046875 -32.753906 3.578125 -33.296875 C 4.117188 -33.835938 4.78125 -34.109375 5.5625 -34.109375 C 6.300781 -34.109375 6.929688 -33.835938 7.453125 -33.296875 C 7.984375 -32.753906 8.25 -32.097656 8.25 -31.328125 C 8.25 -30.546875 7.984375 -29.882812 7.453125 -29.34375 C 6.929688 -28.8125 6.300781 -28.546875 5.5625 -28.546875 Z M 7.53125 -24.5625 L 7.53125 0 L 3.453125 0 L 3.453125 -24.5625 Z M 7.53125 -24.5625 "/></g></g></g><g fill="#000000" fill-opacity="1"><g transform="translate(105.862246, 58.576852)"><g><path d="M 32.984375 -25 C 34.890625 -25 36.585938 -24.601562 38.078125 -23.8125 C 39.578125 -23.019531 40.757812 -21.832031 41.625 -20.25 C 42.5 -18.664062 42.9375 -16.738281 42.9375 -14.46875 L 42.9375 0 L 38.890625 0 L 38.890625 -13.890625 C 38.890625 -16.335938 38.285156 -18.210938 37.078125 -19.515625 C 35.867188 -20.816406 34.234375 -21.46875 32.171875 -21.46875 C 30.054688 -21.46875 28.367188 -20.785156 27.109375 -19.421875 C 25.859375 -18.066406 25.234375 -16.101562 25.234375 -13.53125 L 25.234375 0 L 21.203125 0 L 21.203125 -13.890625 C 21.203125 -16.335938 20.59375 -18.210938 19.375 -19.515625 C 18.164062 -20.816406 16.53125 -21.46875 14.46875 -21.46875 C 12.351562 -21.46875 10.664062 -20.785156 9.40625 -19.421875 C 8.15625 -18.066406 7.53125 -16.101562 7.53125 -13.53125 L 7.53125 0 L 3.453125 0 L 3.453125 -24.5625 L 7.53125 -24.5625 L 7.53125 -21.015625 C 8.332031 -22.296875 9.410156 -23.28125 10.765625 -23.96875 C 12.128906 -24.65625 13.632812 -25 15.28125 -25 C 17.34375 -25 19.164062 -24.535156 20.75 -23.609375 C 22.332031 -22.691406 23.507812 -21.332031 24.28125 -19.53125 C 24.96875 -21.269531 26.101562 -22.613281 27.6875 -23.5625 C 29.269531 -24.519531 31.035156 -25 32.984375 -25 Z M 32.984375 -25 "/></g></g></g><g fill="#000000" fill-opacity="1"><g transform="translate(151.991699, 58.576852)"><g><path d="M 7.53125 -20.03125 C 8.332031 -21.4375 9.53125 -22.609375 11.125 -23.546875 C 12.726562 -24.484375 14.59375 -24.953125 16.71875 -24.953125 C 18.894531 -24.953125 20.867188 -24.429688 22.640625 -23.390625 C 24.421875 -22.347656 25.816406 -20.875 26.828125 -18.96875 C 27.847656 -17.070312 28.359375 -14.875 28.359375 -12.375 C 28.359375 -9.894531 27.847656 -7.679688 26.828125 -5.734375 C 25.816406 -3.796875 24.421875 -2.285156 22.640625 -1.203125 C 20.867188 -0.128906 18.894531 0.40625 16.71875 0.40625 C 14.625 0.40625 12.773438 -0.0625 11.171875 -1 C 9.578125 -1.945312 8.363281 -3.125 7.53125 -4.53125 L 7.53125 11.65625 L 3.453125 11.65625 L 3.453125 -24.5625 L 7.53125 -24.5625 Z M 24.203125 -12.375 C 24.203125 -14.21875 23.828125 -15.828125 23.078125 -17.203125 C 22.328125 -18.578125 21.316406 -19.625 20.046875 -20.34375 C 18.785156 -21.0625 17.390625 -21.421875 15.859375 -21.421875 C 14.367188 -21.421875 12.988281 -21.050781 11.71875 -20.3125 C 10.445312 -19.582031 9.429688 -18.523438 8.671875 -17.140625 C 7.910156 -15.753906 7.53125 -14.148438 7.53125 -12.328125 C 7.53125 -10.472656 7.910156 -8.847656 8.671875 -7.453125 C 9.429688 -6.066406 10.445312 -5.007812 11.71875 -4.28125 C 12.988281 -3.550781 14.367188 -3.1875 15.859375 -3.1875 C 17.390625 -3.1875 18.785156 -3.550781 20.046875 -4.28125 C 21.316406 -5.007812 22.328125 -6.066406 23.078125 -7.453125 C 23.828125 -8.847656 24.203125 -10.488281 24.203125 -12.375 Z M 24.203125 -12.375 "/></g></g></g><g fill="#000000" fill-opacity="1"><g transform="translate(182.26695, 58.576852)"><g><path d="M 7.53125 -33.15625 L 7.53125 0 L 3.453125 0 L 3.453125 -33.15625 Z M 7.53125 -33.15625 "/></g></g></g><g fill="#000000" fill-opacity="1"><g transform="translate(193.284282, 58.576852)"><g><path d="M 5.5625 -28.546875 C 4.78125 -28.546875 4.117188 -28.8125 3.578125 -29.34375 C 3.046875 -29.882812 2.78125 -30.546875 2.78125 -31.328125 C 2.78125 -32.097656 3.046875 -32.753906 3.578125 -33.296875 C 4.117188 -33.835938 4.78125 -34.109375 5.5625 -34.109375 C 6.300781 -34.109375 6.929688 -33.835938 7.453125 -33.296875 C 7.984375 -32.753906 8.25 -32.097656 8.25 -31.328125 C 8.25 -30.546875 7.984375 -29.882812 7.453125 -29.34375 C 6.929688 -28.8125 6.300781 -28.546875 5.5625 -28.546875 Z M 7.53125 -24.5625 L 7.53125 0 L 3.453125 0 L 3.453125 -24.5625 Z M 7.53125 -24.5625 "/></g></g></g><g fill="#000000" fill-opacity="1"><g transform="translate(204.301614, 58.576852)"><g><path d="M 13.4375 -21.203125 L 8.296875 -21.203125 L 8.296875 0 L 4.21875 0 L 4.21875 -21.203125 L 1.03125 -21.203125 L 1.03125 -24.5625 L 4.21875 -24.5625 L 4.21875 -26.3125 C 4.21875 -29.050781 4.925781 -31.054688 6.34375 -32.328125 C 7.757812 -33.597656 10.035156 -34.234375 13.171875 -34.234375 L 13.171875 -30.828125 C 11.378906 -30.828125 10.117188 -30.472656 9.390625 -29.765625 C 8.660156 -29.066406 8.296875 -27.914062 8.296875 -26.3125 L 8.296875 -24.5625 L 13.4375 -24.5625 Z M 13.4375 -21.203125 "/></g></g></g><g fill="#000000" fill-opacity="1"><g transform="translate(219.036155, 58.576852)"><g><path d="M 24.609375 -24.5625 L 9.8125 11.5625 L 5.59375 11.5625 L 10.4375 -0.265625 L 0.53125 -24.5625 L 5.0625 -24.5625 L 12.765625 -4.65625 L 20.390625 -24.5625 Z M 24.609375 -24.5625 "/></g></g></g><g fill="#000000" fill-opacity="1"><g transform="translate(244.250602, 58.576852)"><g><path d="M 4.75 0.265625 C 3.96875 0.265625 3.304688 0 2.765625 -0.53125 C 2.234375 -1.070312 1.96875 -1.734375 1.96875 -2.515625 C 1.96875 -3.285156 2.234375 -3.9375 2.765625 -4.46875 C 3.304688 -5.007812 3.96875 -5.28125 4.75 -5.28125 C 5.5 -5.28125 6.132812 -5.007812 6.65625 -4.46875 C 7.175781 -3.9375 7.4375 -3.285156 7.4375 -2.515625 C 7.4375 -1.734375 7.175781 -1.070312 6.65625 -0.53125 C 6.132812 0 5.5 0.265625 4.75 0.265625 Z M 4.75 0.265625 "/></g></g></g><g fill="#000000" fill-opacity="1"><g transform="translate(253.655637, 58.576852)"><g><path d="M 1.921875 -12.375 C 1.921875 -14.875 2.425781 -17.070312 3.4375 -18.96875 C 4.457031 -20.875 5.859375 -22.347656 7.640625 -23.390625 C 9.421875 -24.429688 11.398438 -24.953125 13.578125 -24.953125 C 15.722656 -24.953125 17.585938 -24.488281 19.171875 -23.5625 C 20.765625 -22.644531 21.945312 -21.484375 22.71875 -20.078125 L 22.71875 -24.5625 L 26.84375 -24.5625 L 26.84375 0 L 22.71875 0 L 22.71875 -4.578125 C 21.914062 -3.140625 20.710938 -1.945312 19.109375 -1 C 17.515625 -0.0625 15.65625 0.40625 13.53125 0.40625 C 11.351562 0.40625 9.378906 -0.128906 7.609375 -1.203125 C 5.847656 -2.285156 4.457031 -3.796875 3.4375 -5.734375 C 2.425781 -7.679688 1.921875 -9.894531 1.921875 -12.375 Z M 22.71875 -12.328125 C 22.71875 -14.179688 22.34375 -15.789062 21.59375 -17.15625 C 20.851562 -18.53125 19.847656 -19.582031 18.578125 -20.3125 C 17.304688 -21.050781 15.910156 -21.421875 14.390625 -21.421875 C 12.859375 -21.421875 11.460938 -21.0625 10.203125 -20.34375 C 8.953125 -19.625 7.953125 -18.578125 7.203125 -17.203125 C 6.460938 -15.828125 6.09375 -14.21875 6.09375 -12.375 C 6.09375 -10.488281 6.460938 -8.847656 7.203125 -7.453125 C 7.953125 -6.066406 8.953125 -5.007812 10.203125 -4.28125 C 11.460938 -3.550781 12.859375 -3.1875 14.390625 -3.1875 C 15.910156 -3.1875 17.304688 -3.550781 18.578125 -4.28125 C 19.847656 -5.007812 20.851562 -6.066406 21.59375 -7.453125 C 22.34375 -8.847656 22.71875 -10.472656 22.71875 -12.328125 Z M 22.71875 -12.328125 "/></g></g></g><g fill="#000000" fill-opacity="1"><g transform="translate(283.930888, 58.576852)"><g><path d="M 5.5625 -28.546875 C 4.78125 -28.546875 4.117188 -28.8125 3.578125 -29.34375 C 3.046875 -29.882812 2.78125 -30.546875 2.78125 -31.328125 C 2.78125 -32.097656 3.046875 -32.753906 3.578125 -33.296875 C 4.117188 -33.835938 4.78125 -34.109375 5.5625 -34.109375 C 6.300781 -34.109375 6.929688 -33.835938 7.453125 -33.296875 C 7.984375 -32.753906 8.25 -32.097656 8.25 -31.328125 C 8.25 -30.546875 7.984375 -29.882812 7.453125 -29.34375 C 6.929688 -28.8125 6.300781 -28.546875 5.5625 -28.546875 Z M 7.53125 -24.5625 L 7.53125 0 L 3.453125 0 L 3.453125 -24.5625 Z M 7.53125 -24.5625 "/></g></g></g></svg>